<?xml version="1.0" encoding="UTF-8"?>
<svg xmlns="http://www.w3.org/2000/svg" width="1600" height="1000" viewBox="0 0 1600 1000" role="img">
  <title>Cocoon Lab color palette</title>
  <rect width="100%" height="100%" fill="#FEFCF8"/>
  <text x="110" y="90" font-family="Inter, Arial, sans-serif" font-size="52" font-weight="600" fill="#1C201B">Cocoon Lab Palette</text>
  <rect x="110" y="160" width="280" height="155" rx="22" fill="#1C201B"/><text x="134" y="215" font-family="Inter, Arial, sans-serif" font-size="28" font-weight="600" fill="#FEFCF8">Ink</text><text x="134" y="260" font-family="Inter, Arial, sans-serif" font-size="24" fill="#FEFCF8" opacity="0.88">#1C201B</text><rect x="435" y="160" width="280" height="155" rx="22" fill="#F8F4EC"/><text x="459" y="215" font-family="Inter, Arial, sans-serif" font-size="28" font-weight="600" fill="#1C201B">Ivory</text><text x="459" y="260" font-family="Inter, Arial, sans-serif" font-size="24" fill="#1C201B" opacity="0.88">#F8F4EC</text><rect x="760" y="160" width="280" height="155" rx="22" fill="#FEFCF8"/><text x="784" y="215" font-family="Inter, Arial, sans-serif" font-size="28" font-weight="600" fill="#1C201B">Warm White</text><text x="784" y="260" font-family="Inter, Arial, sans-serif" font-size="24" fill="#1C201B" opacity="0.88">#FEFCF8</text><rect x="1085" y="160" width="280" height="155" rx="22" fill="#D7D0C4"/><text x="1109" y="215" font-family="Inter, Arial, sans-serif" font-size="28" font-weight="600" fill="#1C201B">Stone</text><text x="1109" y="260" font-family="Inter, Arial, sans-serif" font-size="24" fill="#1C201B" opacity="0.88">#D7D0C4</text><rect x="110" y="405" width="280" height="155" rx="22" fill="#C9D9DA"/><text x="134" y="460" font-family="Inter, Arial, sans-serif" font-size="28" font-weight="600" fill="#1C201B">Mist Blue</text><text x="134" y="505" font-family="Inter, Arial, sans-serif" font-size="24" fill="#1C201B" opacity="0.88">#C9D9DA</text><rect x="435" y="405" width="280" height="155" rx="22" fill="#87977E"/><text x="459" y="460" font-family="Inter, Arial, sans-serif" font-size="28" font-weight="600" fill="#FEFCF8">Sage</text><text x="459" y="505" font-family="Inter, Arial, sans-serif" font-size="24" fill="#FEFCF8" opacity="0.88">#87977E</text><rect x="760" y="405" width="280" height="155" rx="22" fill="#D8BE8F"/><text x="784" y="460" font-family="Inter, Arial, sans-serif" font-size="28" font-weight="600" fill="#1C201B">Sand</text><text x="784" y="505" font-family="Inter, Arial, sans-serif" font-size="24" fill="#1C201B" opacity="0.88">#D8BE8F</text><rect x="1085" y="405" width="280" height="155" rx="22" fill="#8D9490"/><text x="1109" y="460" font-family="Inter, Arial, sans-serif" font-size="28" font-weight="600" fill="#1C201B">Graphite</text><text x="1109" y="505" font-family="Inter, Arial, sans-serif" font-size="24" fill="#1C201B" opacity="0.88">#8D9490</text>
  <text x="110" y="880" font-family="Inter, Arial, sans-serif" font-size="25" fill="#1C201B" opacity="0.7">Soft architectural neutrals, warm site highlights, sage interface signals, and clear ink contrast.</text>
</svg>