<svg width="900" height="900" viewBox="0 0 900 900" fill="none" xmlns="http://www.w3.org/2000/svg">
  <rect width="900" height="900" fill="#D9E5DD"/>
  <rect x="76" y="76" width="748" height="748" rx="36" fill="url(#paint0_linear)"/>
  <circle cx="666" cy="268" r="78" fill="#FDE7D3" fill-opacity="0.95"/>
  <path d="M128 664C218 594 314 556 418 550C536 542 636 584 780 700V824H128V664Z" fill="#F9F9F7" fill-opacity="0.82"/>
  <path d="M254 578L414 406L620 550V824H254V578Z" fill="#F9F9F7" fill-opacity="0.58"/>
  <path d="M414 406L414 824" stroke="#5A605C" stroke-width="6"/>
  <path d="M254 578L414 406L620 550" stroke="#5A605C" stroke-width="6" stroke-linejoin="round"/>
  <path d="M302 824V628L414 554L560 648V824" stroke="#ADB3B0" stroke-width="4"/>
  <text x="134" y="160" fill="#2D3432" font-family="Newsreader, Georgia, serif" font-size="48">
    Placeholder render
  </text>
  <text x="134" y="212" fill="#5A605E" font-family="Manrope, Arial, sans-serif" font-size="22">
    Replace with atmospheric preview later
  </text>
  <defs>
    <linearGradient id="paint0_linear" x1="124" y1="96" x2="748" y2="804" gradientUnits="userSpaceOnUse">
      <stop stop-color="#F4F2EE"/>
      <stop offset="1" stop-color="#C8D9CB"/>
    </linearGradient>
  </defs>
</svg>
