<svg width="1600" height="900" viewBox="0 0 1600 900" fill="none" xmlns="http://www.w3.org/2000/svg">
  <rect width="1600" height="900" fill="#DCE4E0"/>
  <rect x="60" y="60" width="1480" height="780" rx="30" fill="url(#paint0_linear)"/>
  <g opacity="0.72">
    <path d="M194 664L486 405L708 541L960 270L1264 444L1416 326" stroke="#5A605C" stroke-width="8" stroke-linecap="round"/>
    <path d="M228 712L514 520L702 603L984 390L1218 510L1368 416" stroke="#ADB3B0" stroke-width="4" stroke-linecap="round" stroke-dasharray="8 12"/>
    <path d="M214 256H536" stroke="#6C5C4D" stroke-width="6" stroke-linecap="round"/>
    <path d="M214 294H430" stroke="#ADB3B0" stroke-width="4" stroke-linecap="round"/>
  </g>
  <rect x="186" y="178" width="342" height="478" rx="24" fill="#F9F9F7" fill-opacity="0.68"/>
  <rect x="1072" y="154" width="292" height="216" rx="28" fill="#F9F9F7" fill-opacity="0.78"/>
  <rect x="1098" y="192" width="164" height="18" rx="9" fill="#5A605C" fill-opacity="0.24"/>
  <rect x="1098" y="228" width="214" height="18" rx="9" fill="#5A605C" fill-opacity="0.14"/>
  <rect x="1098" y="278" width="220" height="48" rx="16" fill="#5A605C" fill-opacity="0.1"/>
  <circle cx="1294" cy="618" r="118" fill="#F9F9F7" fill-opacity="0.75"/>
  <circle cx="1294" cy="618" r="84" stroke="#5A605C" stroke-width="4" stroke-dasharray="10 12"/>
  <text x="214" y="710" fill="#4E5450" font-family="Newsreader, Georgia, serif" font-size="44" font-style="italic">
    Placeholder hero image
  </text>
  <text x="214" y="760" fill="#5A605E" font-family="Manrope, Arial, sans-serif" font-size="22">
    Replace with architectural study or cinematic product still.
  </text>
  <defs>
    <linearGradient id="paint0_linear" x1="152" y1="96" x2="1450" y2="820" gradientUnits="userSpaceOnUse">
      <stop stop-color="#EEF1EE"/>
      <stop offset="1" stop-color="#CFD6D2"/>
    </linearGradient>
  </defs>
</svg>
