<svg width="1600" height="900" viewBox="0 0 1600 900" fill="none" xmlns="http://www.w3.org/2000/svg">
  <defs>
    <linearGradient id="cost-bg" x1="194" y1="68" x2="1307" y2="812" gradientUnits="userSpaceOnUse">
      <stop stop-color="#FBF7EF"/>
      <stop offset="1" stop-color="#ECE4D7"/>
    </linearGradient>
    <linearGradient id="cost-gold" x1="800" y1="208" x2="800" y2="632" gradientUnits="userSpaceOnUse">
      <stop stop-color="#F8E5B5"/>
      <stop offset="1" stop-color="#E6C98A"/>
    </linearGradient>
    <filter id="cost-shadow" x="0" y="0" width="1600" height="900" filterUnits="userSpaceOnUse" color-interpolation-filters="sRGB">
      <feDropShadow dx="0" dy="20" stdDeviation="20" flood-color="#BCA88D" flood-opacity="0.28"/>
    </filter>
  </defs>

  <rect width="1600" height="900" fill="url(#cost-bg)"/>

  <g opacity="0.24" stroke="#D8CEC0">
    <path d="M145 172H1455"/>
    <path d="M145 248H1455"/>
    <path d="M145 324H1455"/>
    <path d="M145 400H1455"/>
    <path d="M145 476H1455"/>
    <path d="M145 552H1455"/>
    <path d="M145 628H1455"/>
    <path d="M145 704H1455"/>
    <path d="M246 120V780"/>
    <path d="M448 120V780"/>
    <path d="M650 120V780"/>
    <path d="M852 120V780"/>
    <path d="M1054 120V780"/>
    <path d="M1256 120V780"/>
  </g>

  <g opacity="0.62">
    <rect x="518" y="226" width="108" height="246" rx="20" fill="#F3D9A1"/>
    <rect x="655" y="183" width="126" height="289" rx="22" fill="#F0D29A"/>
    <rect x="812" y="148" width="120" height="324" rx="24" fill="url(#cost-gold)"/>
    <rect x="965" y="204" width="104" height="268" rx="20" fill="#EDD7AA"/>
  </g>

  <g filter="url(#cost-shadow)">
    <rect x="430" y="500" width="740" height="148" rx="18" fill="#F4E9D0" stroke="#D9C9A8" stroke-width="3"/>
    <rect x="562" y="480" width="130" height="84" rx="8" fill="#FBF8F0"/>
    <rect x="710" y="443" width="156" height="122" rx="8" fill="#FAF6EE"/>
    <rect x="883" y="462" width="108" height="104" rx="8" fill="#FCF9F3"/>
    <rect x="754" y="380" width="132" height="122" rx="8" fill="#FBF7EE"/>
  </g>

  <g opacity="0.72" stroke="#C29E57" stroke-width="3">
    <path d="M418 575H1186"/>
    <path d="M436 610H1168"/>
    <path d="M558 443V339"/>
    <path d="M790 381V272"/>
    <path d="M934 463V327"/>
  </g>

  <g opacity="0.64">
    <path d="M240 222C410 249 584 222 756 173C880 138 1005 129 1131 147C1227 161 1323 193 1417 243" stroke="#FFF4D9" stroke-width="10" stroke-linecap="round"/>
    <path d="M191 272C380 298 574 278 774 225C896 193 1017 183 1136 200C1241 215 1336 249 1423 300" stroke="#FFF4D9" stroke-width="7" stroke-linecap="round"/>
  </g>

  <g opacity="0.88" fill="#83622A">
    <rect x="280" y="160" width="84" height="34" rx="17" fill="#F6ECD4"/>
    <rect x="1196" y="626" width="138" height="40" rx="20" fill="#F6ECD4"/>
    <text x="302" y="182" font-family="Avenir Next, Arial, sans-serif" font-size="18" letter-spacing="0.18em" fill="#8A6A34">BUDGET</text>
    <text x="1224" y="652" font-family="Avenir Next, Arial, sans-serif" font-size="18" letter-spacing="0.14em" fill="#8A6A34">LIVE QUANTITIES</text>
  </g>
</svg>
