<svg width="1600" height="900" viewBox="0 0 1600 900" fill="none" xmlns="http://www.w3.org/2000/svg">
  <defs>
    <linearGradient id="code-bg" x1="173" y1="90" x2="1374" y2="812" gradientUnits="userSpaceOnUse">
      <stop stop-color="#F8F4EB"/>
      <stop offset="1" stop-color="#E8E2D6"/>
    </linearGradient>
    <filter id="code-shadow" x="0" y="0" width="1600" height="900" filterUnits="userSpaceOnUse" color-interpolation-filters="sRGB">
      <feDropShadow dx="0" dy="20" stdDeviation="20" flood-color="#A3A091" flood-opacity="0.18"/>
    </filter>
  </defs>

  <rect width="1600" height="900" fill="url(#code-bg)"/>

  <g opacity="0.25" stroke="#D6D0C4">
    <path d="M154 146H1446"/>
    <path d="M154 246H1446"/>
    <path d="M154 346H1446"/>
    <path d="M154 446H1446"/>
    <path d="M154 546H1446"/>
    <path d="M154 646H1446"/>
    <path d="M154 746H1446"/>
    <path d="M246 88V812"/>
    <path d="M446 88V812"/>
    <path d="M646 88V812"/>
    <path d="M846 88V812"/>
    <path d="M1046 88V812"/>
    <path d="M1246 88V812"/>
  </g>

  <g filter="url(#code-shadow)">
    <path d="M510 620V346L800 244L1090 346V620L800 722L510 620Z" fill="#F5F2EB" stroke="#9DA58F" stroke-width="3"/>
    <path d="M580 586V396L800 322L1020 396V586L800 660L580 586Z" fill="#FDFBF7" stroke="#8BA27E" stroke-width="3"/>
    <path d="M657 548V438L800 389L943 438V548L800 597L657 548Z" fill="#FAF9F5" stroke="#6F8E67" stroke-width="3"/>
  </g>

  <g opacity="0.8" stroke="#6F8E67" stroke-width="4" stroke-linecap="round" stroke-linejoin="round">
    <path d="M469 328L799 213L1131 328"/>
    <path d="M469 641L799 756L1131 641"/>
  </g>

  <g opacity="0.82" stroke="#2F3F38" stroke-width="2.5" stroke-linecap="round">
    <path d="M433 290H1167"/>
    <path d="M433 670H1167"/>
    <path d="M463 272V689"/>
    <path d="M1137 272V689"/>
    <path d="M1215 350H1329"/>
    <path d="M1215 560H1329"/>
    <path d="M272 428H398"/>
    <path d="M272 536H398"/>
  </g>

  <g fill="#2F3F38" opacity="0.78">
    <text x="1240" y="341" font-family="Avenir Next, Arial, sans-serif" font-size="22" letter-spacing="0.12em">HEIGHT</text>
    <text x="1239" y="551" font-family="Avenir Next, Arial, sans-serif" font-size="22" letter-spacing="0.12em">SETBACK</text>
    <text x="286" y="419" font-family="Avenir Next, Arial, sans-serif" font-size="22" letter-spacing="0.12em">FAR</text>
    <text x="286" y="527" font-family="Avenir Next, Arial, sans-serif" font-size="22" letter-spacing="0.12em">ACCESS</text>
  </g>

  <g opacity="0.46">
    <path d="M1075 250C1164 278 1247 325 1322 390" stroke="#F0F9E6" stroke-width="10" stroke-linecap="round"/>
    <path d="M1038 214C1151 243 1256 297 1351 372" stroke="#F0F9E6" stroke-width="7" stroke-linecap="round"/>
  </g>
</svg>
