<svg width="1600" height="900" viewBox="0 0 1600 900" fill="none" xmlns="http://www.w3.org/2000/svg">
  <defs>
    <linearGradient id="site-bg" x1="181" y1="96" x2="1336" y2="794" gradientUnits="userSpaceOnUse">
      <stop stop-color="#F8F4EC"/>
      <stop offset="1" stop-color="#EAE4DA"/>
    </linearGradient>
    <linearGradient id="site-glow" x1="800" y1="278" x2="800" y2="650" gradientUnits="userSpaceOnUse">
      <stop stop-color="#FFF5D9"/>
      <stop offset="1" stop-color="#E9DDC2"/>
    </linearGradient>
    <linearGradient id="site-flow" x1="274" y1="274" x2="1279" y2="633" gradientUnits="userSpaceOnUse">
      <stop stop-color="#FFF6DE" stop-opacity="0.82"/>
      <stop offset="1" stop-color="#FFFFFF" stop-opacity="0"/>
    </linearGradient>
    <filter id="site-shadow" x="0" y="0" width="1600" height="900" filterUnits="userSpaceOnUse" color-interpolation-filters="sRGB">
      <feDropShadow dx="0" dy="24" stdDeviation="24" flood-color="#B9B0A1" flood-opacity="0.34"/>
    </filter>
    <filter id="site-soft" x="-100" y="-100" width="1800" height="1100" filterUnits="userSpaceOnUse" color-interpolation-filters="sRGB">
      <feGaussianBlur stdDeviation="14"/>
    </filter>
  </defs>

  <rect width="1600" height="900" fill="url(#site-bg)"/>

  <g opacity="0.64">
    <path d="M0 236L519 0" stroke="#D8D1C4" stroke-width="3"/>
    <path d="M0 662L701 312" stroke="#D8D1C4" stroke-width="3"/>
    <path d="M512 0L1600 530" stroke="#D8D1C4" stroke-width="3"/>
    <path d="M917 0L1600 336" stroke="#D8D1C4" stroke-width="3"/>
  </g>

  <g opacity="0.52">
    <path d="M43 204C155 146 264 135 372 173" stroke="#CFC8BB" stroke-width="16" stroke-linecap="round"/>
    <path d="M1184 632C1285 586 1392 578 1514 619" stroke="#CFC8BB" stroke-width="16" stroke-linecap="round"/>
    <path d="M96 742C187 668 311 644 436 667" stroke="#CFC8BB" stroke-width="14" stroke-linecap="round"/>
  </g>

  <g filter="url(#site-shadow)">
    <rect x="494" y="269" width="606" height="360" rx="8" fill="url(#site-glow)" stroke="#D3C7B3" stroke-width="4"/>
    <rect x="614" y="465" width="114" height="56" rx="7" fill="#FBF9F4"/>
    <rect x="742" y="445" width="110" height="85" rx="7" fill="#FAF8F2"/>
    <rect x="865" y="447" width="86" height="70" rx="7" fill="#FBF9F4"/>
    <rect x="662" y="392" width="154" height="92" rx="7" fill="#FBF9F4"/>
    <rect x="816" y="332" width="128" height="176" rx="7" fill="#FAF8F2"/>
    <rect x="949" y="382" width="74" height="136" rx="7" fill="#F7F3EA"/>
  </g>

  <g fill="#FBF9F5" filter="url(#site-shadow)">
    <rect x="132" y="103" width="172" height="99" rx="6"/>
    <rect x="366" y="122" width="128" height="78" rx="6"/>
    <rect x="523" y="108" width="88" height="88" rx="6"/>
    <rect x="696" y="80" width="178" height="104" rx="6"/>
    <rect x="1008" y="113" width="148" height="90" rx="6"/>
    <rect x="1195" y="139" width="193" height="86" rx="6"/>
    <rect x="1426" y="128" width="126" height="78" rx="6"/>
    <rect x="76" y="290" width="128" height="119" rx="6"/>
    <rect x="249" y="338" width="92" height="61" rx="6"/>
    <rect x="1302" y="314" width="166" height="105" rx="6"/>
    <rect x="1481" y="301" width="86" height="94" rx="6"/>
    <rect x="112" y="694" width="138" height="88" rx="6"/>
    <rect x="1278" y="691" width="190" height="88" rx="6"/>
    <rect x="1042" y="728" width="205" height="84" rx="6"/>
    <rect x="1388" y="630" width="144" height="74" rx="6"/>
  </g>

  <g opacity="0.42" filter="url(#site-soft)">
    <ellipse cx="349" cy="260" rx="54" ry="29" fill="#D7D0C6"/>
    <ellipse cx="1003" cy="261" rx="63" ry="30" fill="#D7D0C6"/>
    <ellipse cx="1168" cy="334" rx="56" ry="28" fill="#D7D0C6"/>
    <ellipse cx="286" cy="622" rx="58" ry="26" fill="#D7D0C6"/>
    <ellipse cx="602" cy="677" rx="52" ry="23" fill="#D7D0C6"/>
    <ellipse cx="939" cy="691" rx="64" ry="28" fill="#D7D0C6"/>
    <ellipse cx="1286" cy="553" rx="46" ry="20" fill="#D7D0C6"/>
  </g>

  <g opacity="0.72">
    <path d="M65 164C213 228 382 247 578 215C744 188 892 185 1021 208C1139 229 1296 228 1492 188" stroke="url(#site-flow)" stroke-width="10" stroke-linecap="round"/>
    <path d="M16 204C194 269 386 285 592 251C758 224 904 223 1032 250C1147 274 1306 277 1501 241" stroke="url(#site-flow)" stroke-width="8" stroke-linecap="round"/>
    <path d="M1031 522C1161 530 1271 564 1361 623C1427 666 1507 693 1600 705" stroke="url(#site-flow)" stroke-width="10" stroke-linecap="round"/>
    <path d="M0 644C91 629 181 641 269 680C345 713 422 725 500 715" stroke="url(#site-flow)" stroke-width="10" stroke-linecap="round"/>
  </g>
</svg>
