<svg width="1600" height="900" viewBox="0 0 1600 900" fill="none" xmlns="http://www.w3.org/2000/svg">
  <defs>
    <linearGradient id="visuals-bg" x1="281" y1="75" x2="1268" y2="812" gradientUnits="userSpaceOnUse">
      <stop stop-color="#FBF5E8"/>
      <stop offset="1" stop-color="#E5E8DB"/>
    </linearGradient>
    <linearGradient id="visuals-green" x1="923" y1="136" x2="923" y2="538" gradientUnits="userSpaceOnUse">
      <stop stop-color="#A7BA7B"/>
      <stop offset="1" stop-color="#74885A"/>
    </linearGradient>
    <linearGradient id="visuals-glass" x1="691" y1="330" x2="803" y2="718" gradientUnits="userSpaceOnUse">
      <stop stop-color="#E7DCC0" stop-opacity="0.84"/>
      <stop offset="1" stop-color="#BBAF96" stop-opacity="0.42"/>
    </linearGradient>
    <filter id="visuals-shadow" x="0" y="0" width="1600" height="900" filterUnits="userSpaceOnUse" color-interpolation-filters="sRGB">
      <feDropShadow dx="0" dy="24" stdDeviation="24" flood-color="#A1A58C" flood-opacity="0.26"/>
    </filter>
    <filter id="visuals-soft" x="-80" y="-80" width="1760" height="1060" filterUnits="userSpaceOnUse" color-interpolation-filters="sRGB">
      <feGaussianBlur stdDeviation="22"/>
    </filter>
  </defs>

  <rect width="1600" height="900" fill="url(#visuals-bg)"/>

  <g filter="url(#visuals-soft)" opacity="0.46">
    <ellipse cx="234" cy="685" rx="128" ry="106" fill="#C9D2C0"/>
    <ellipse cx="1342" cy="640" rx="156" ry="132" fill="#D3D8C9"/>
    <ellipse cx="1266" cy="234" rx="124" ry="104" fill="#E0E4D8"/>
  </g>

  <g filter="url(#visuals-shadow)">
    <rect x="400" y="594" width="764" height="185" rx="8" fill="#EEE7DA"/>
    <rect x="438" y="482" width="286" height="148" rx="8" fill="#F0EBE0"/>
    <rect x="594" y="380" width="255" height="220" rx="8" fill="#EDE6D8"/>
    <rect x="860" y="351" width="190" height="249" rx="8" fill="#EDE6D8"/>
    <rect x="1035" y="493" width="182" height="132" rx="8" fill="#EDE6D8"/>
    <rect x="611" y="219" width="420" height="163" rx="10" fill="url(#visuals-green)"/>
    <rect x="861" y="129" width="343" height="196" rx="10" fill="url(#visuals-green)"/>
    <rect x="391" y="270" width="335" height="154" rx="10" fill="#81945F" fill-opacity="0.9"/>
    <rect x="430" y="451" width="304" height="162" rx="8" fill="url(#visuals-glass)" fill-opacity="0.64"/>
    <rect x="600" y="353" width="251" height="253" rx="8" fill="url(#visuals-glass)" fill-opacity="0.58"/>
    <rect x="861" y="330" width="188" height="281" rx="8" fill="url(#visuals-glass)" fill-opacity="0.56"/>
  </g>

  <g opacity="0.35" stroke="#F4ECCB" stroke-width="3">
    <path d="M478 449V614"/>
    <path d="M525 449V614"/>
    <path d="M572 449V614"/>
    <path d="M619 449V614"/>
    <path d="M666 449V614"/>
    <path d="M649 351V606"/>
    <path d="M699 351V606"/>
    <path d="M749 351V606"/>
    <path d="M799 351V606"/>
    <path d="M906 331V611"/>
    <path d="M947 331V611"/>
    <path d="M988 331V611"/>
  </g>

  <g opacity="0.68">
    <path d="M261 188C428 256 592 284 752 271C874 261 1005 220 1145 149C1260 90 1376 76 1492 105" stroke="#F4EECF" stroke-width="12" stroke-linecap="round"/>
    <path d="M228 242C418 311 599 340 771 327C892 317 1020 279 1157 214C1265 162 1378 146 1493 174" stroke="#F4EECF" stroke-width="8" stroke-linecap="round"/>
  </g>

  <g opacity="0.56" fill="#8DA06D">
    <circle cx="453" cy="655" r="22"/>
    <circle cx="523" cy="646" r="18"/>
    <circle cx="998" cy="642" r="19"/>
    <circle cx="1053" cy="633" r="17"/>
    <circle cx="1104" cy="641" r="16"/>
  </g>
</svg>
