<svg width="1600" height="900" viewBox="0 0 1600 900" fill="none" xmlns="http://www.w3.org/2000/svg">
  <defs>
    <linearGradient id="carbon-bg" x1="227" y1="114" x2="1299" y2="774" gradientUnits="userSpaceOnUse">
      <stop stop-color="#F8F4EA"/>
      <stop offset="1" stop-color="#E4EEE2"/>
    </linearGradient>
    <linearGradient id="carbon-green" x1="800" y1="213" x2="800" y2="610" gradientUnits="userSpaceOnUse">
      <stop stop-color="#C8D8BE"/>
      <stop offset="1" stop-color="#8FAB88"/>
    </linearGradient>
    <filter id="carbon-shadow" x="0" y="0" width="1600" height="900" filterUnits="userSpaceOnUse" color-interpolation-filters="sRGB">
      <feDropShadow dx="0" dy="24" stdDeviation="24" flood-color="#95A68D" flood-opacity="0.26"/>
    </filter>
  </defs>

  <rect width="1600" height="900" fill="url(#carbon-bg)"/>

  <g opacity="0.3">
    <circle cx="800" cy="448" r="306" stroke="#BFD1B9" stroke-width="2"/>
    <circle cx="800" cy="448" r="242" stroke="#C9D7C2" stroke-width="2"/>
    <circle cx="800" cy="448" r="178" stroke="#D4DED0" stroke-width="2"/>
  </g>

  <g filter="url(#carbon-shadow)">
    <rect x="483" y="577" width="632" height="104" rx="18" fill="#EDF1E9"/>
    <rect x="594" y="482" width="214" height="108" rx="10" fill="#F8F8F2"/>
    <rect x="824" y="458" width="191" height="132" rx="10" fill="#F8F8F2"/>
    <rect x="688" y="344" width="246" height="136" rx="10" fill="#F7F5EF"/>
    <rect x="744" y="250" width="184" height="112" rx="10" fill="#F8F7F1"/>
    <rect x="671" y="321" width="271" height="42" rx="8" fill="#A6BD98" fill-opacity="0.74"/>
    <rect x="569" y="460" width="257" height="34" rx="8" fill="#C7D8BE" fill-opacity="0.74"/>
    <rect x="801" y="430" width="232" height="38" rx="8" fill="url(#carbon-green)" fill-opacity="0.82"/>
  </g>

  <g opacity="0.72">
    <path d="M291 218C418 264 559 281 716 267C864 253 1010 267 1153 314C1241 344 1321 387 1393 444" stroke="#EAF5E1" stroke-width="10" stroke-linecap="round"/>
    <path d="M248 275C413 318 576 333 739 320C875 310 1002 323 1120 359C1224 391 1320 447 1411 527" stroke="#EAF5E1" stroke-width="7" stroke-linecap="round"/>
  </g>

  <g opacity="0.54" stroke="#7E9B75" stroke-width="3" stroke-linecap="round">
    <path d="M531 646C604 628 671 601 732 565"/>
    <path d="M1049 633C980 622 913 597 852 558"/>
    <path d="M799 196V121"/>
  </g>

  <g fill="#79956D">
    <circle cx="799" cy="107" r="13" fill="#A9BEA0"/>
    <circle cx="514" cy="651" r="12" fill="#A9BEA0"/>
    <circle cx="1067" cy="640" r="12" fill="#A9BEA0"/>
  </g>
</svg>
