<svg width="1200" height="630" viewBox="0 0 1200 630" fill="none" xmlns="http://www.w3.org/2000/svg">
  <rect width="1200" height="630" fill="#2D2E28"/>
  <rect width="1200" height="630" fill="url(#backgroundGlow)"/>

  <g clip-path="url(#frameClip)">
    <g opacity="0.58" stroke-linecap="round" stroke-linejoin="round">
      <path d="M-82 456 C72 380 170 330 318 352 C462 374 552 470 716 454 C842 442 942 350 1090 378 C1208 400 1288 486 1336 572" stroke="#3A606E" stroke-width="18" opacity="0.18"/>
      <path d="M-76 424 C74 354 170 310 304 326 C462 344 550 438 704 424 C824 414 936 322 1092 348 C1210 368 1290 452 1352 534" stroke="#A8B58A" stroke-width="2" opacity="0.28"/>
      <path d="M382 -82 C388 42 340 162 376 268 C414 382 520 448 546 604" stroke="#3A606E" stroke-width="14" opacity="0.13"/>
      <path d="M424 -70 C430 54 386 172 424 274 C468 394 568 454 594 626" stroke="#A8B58A" stroke-width="2" opacity="0.22"/>
      <path d="M1010 -64 C970 62 890 142 884 262 C878 382 954 482 938 690" stroke="#3A606E" stroke-width="16" opacity="0.14"/>
      <path d="M1052 -46 C1012 72 936 148 930 262 C922 378 1000 476 984 674" stroke="#A8B58A" stroke-width="2" opacity="0.2"/>
    </g>

    <g opacity="0.5" stroke="#3A606E" stroke-width="1.25">
      <path d="M43 44 L206 6 L260 64 L208 160 L78 186 L10 114 Z"/>
      <path d="M124 212 L250 174 L336 240 L286 346 L138 354 L72 282 Z"/>
      <path d="M22 420 L156 382 L238 436 L214 542 L76 572 L-18 510 Z"/>
      <path d="M558 46 L676 -26 L778 58 L710 182 L584 156 Z"/>
      <path d="M664 86 L704 62 L742 94 L714 142 L672 132 Z"/>
      <path d="M766 224 L900 180 L1004 252 L976 362 L818 380 L742 304 Z"/>
      <path d="M838 258 L902 238 L950 274 L936 326 L858 334 L820 294 Z"/>
      <path d="M1034 84 L1152 94 L1204 178 L1160 274 L1032 258 L1008 156 Z"/>
      <path d="M1046 134 L1114 140 L1142 182 L1118 224 L1052 216 Z"/>
      <path d="M1086 420 L1214 388 L1274 482 L1204 594 L1072 554 Z"/>
      <path d="M618 504 L748 476 L824 548 L776 658 L640 660 L574 590 Z"/>
      <path d="M382 338 L484 304 L560 362 L540 458 L424 482 L354 416 Z"/>
    </g>

    <g opacity="0.26" stroke="#A8B58A" stroke-width="1">
      <path d="M82 78 L194 52 L226 84 L192 138 L100 156 L48 108 Z"/>
      <path d="M168 246 L250 220 L296 258 L270 316 L174 326 L122 278 Z"/>
      <path d="M804 264 L890 238 L948 282 L926 342 L828 352 L778 304 Z"/>
      <path d="M628 62 L672 34 L728 82 L690 144 L624 128 Z"/>
      <path d="M412 368 L480 344 L526 382 L512 436 L432 452 L386 410 Z"/>
      <path d="M1080 142 L1120 146 L1136 182 L1114 212 L1074 206 Z"/>
    </g>

    <g opacity="0.28">
      <circle cx="872" cy="76" r="2" fill="#EBC04D"/>
      <circle cx="958" cy="372" r="2" fill="#EBC04D"/>
      <circle cx="510" cy="470" r="2" fill="#B36A5E"/>
      <circle cx="232" cy="172" r="2" fill="#A8B58A"/>
    </g>
  </g>

  <rect x="0" y="0" width="1200" height="630" fill="url(#leftShade)"/>

  <g filter="url(#softShadow)">
    <text x="68" y="128" fill="#F7F7F2" font-size="86" font-family="Outfit, 'Segoe UI', sans-serif" font-weight="800">
      Cocoon
    </text>
    <text x="72" y="196" fill="#F7F7F2" font-size="38" font-family="'Plus Jakarta Sans', 'Segoe UI', sans-serif" font-weight="500">
      AI for architects
    </text>
  </g>

  <g filter="url(#panelShadow)">
    <rect x="548" y="228" width="530" height="320" rx="30" fill="#3A606E" fill-opacity="0.5"/>
    <rect x="548.75" y="228.75" width="528.5" height="318.5" rx="29.25" stroke="#A8B58A" stroke-opacity="0.36" stroke-width="1.5"/>
    <rect x="548" y="228" width="530" height="320" rx="30" fill="url(#panelGlow)"/>

    <text x="602" y="304" fill="#F7F7F2" font-size="39" font-family="Outfit, 'Segoe UI', sans-serif" font-weight="700">
      Early-stage feasibility
    </text>

    <g font-family="'Plus Jakarta Sans', 'Segoe UI', sans-serif" font-size="31" font-weight="650" fill="#F7F7F2">
      <g>
        <rect x="602" y="346" width="420" height="76" rx="18" fill="#2D2E28" fill-opacity="0.22" stroke="#A8B58A" stroke-opacity="0.18"/>
        <rect x="624" y="370" width="34" height="30" rx="5" stroke="#F7F7F2" stroke-width="3"/>
        <path d="M632 380 H650 M632 390 H646" stroke="#EBC04D" stroke-width="3" stroke-linecap="round"/>
        <text x="692" y="395">Brief</text>
      </g>

      <g>
        <rect x="602" y="442" width="420" height="76" rx="18" fill="#2D2E28" fill-opacity="0.22" stroke="#A8B58A" stroke-opacity="0.18"/>
        <path d="M640 463 L647 477 L662 484 L647 491 L640 505 L633 491 L618 484 L633 477 Z" stroke="#F7F7F2" stroke-width="3" stroke-linejoin="round"/>
        <path d="M620 466 L624 466 M622 464 L622 468 M664 462 L668 462 M666 460 L666 464" stroke="#EBC04D" stroke-width="2.5" stroke-linecap="round"/>
        <path d="M618 502 L630 490" stroke="#F7F7F2" stroke-width="3" stroke-linecap="round"/>
        <text x="692" y="491">Options</text>
      </g>
    </g>

    <g>
      <rect x="724" y="536" width="298" height="10" rx="5" fill="#EBC04D"/>
      <rect x="602" y="536" width="96" height="10" rx="5" fill="#A8B58A"/>
    </g>
  </g>

  <defs>
    <clipPath id="frameClip">
      <rect width="1200" height="630"/>
    </clipPath>
    <linearGradient id="backgroundGlow" x1="0" y1="0" x2="1200" y2="630" gradientUnits="userSpaceOnUse">
      <stop stop-color="#2D2E28"/>
      <stop offset="0.42" stop-color="#203941"/>
      <stop offset="1" stop-color="#3A606E"/>
    </linearGradient>
    <radialGradient id="panelGlow" cx="0" cy="0" r="1" gradientUnits="userSpaceOnUse" gradientTransform="translate(930 280) rotate(137) scale(464 350)">
      <stop stop-color="#F7F7F2" stop-opacity="0.16"/>
      <stop offset="0.44" stop-color="#3A606E" stop-opacity="0.18"/>
      <stop offset="1" stop-color="#2D2E28" stop-opacity="0.36"/>
    </radialGradient>
    <linearGradient id="leftShade" x1="0" y1="315" x2="1200" y2="315" gradientUnits="userSpaceOnUse">
      <stop stop-color="#2D2E28" stop-opacity="0.42"/>
      <stop offset="0.46" stop-color="#2D2E28" stop-opacity="0.06"/>
      <stop offset="1" stop-color="#2D2E28" stop-opacity="0"/>
    </linearGradient>
    <filter id="softShadow" x="40" y="48" width="420" height="190" filterUnits="userSpaceOnUse" color-interpolation-filters="sRGB">
      <feDropShadow dx="0" dy="3" stdDeviation="3" flood-color="#000000" flood-opacity="0.3"/>
    </filter>
    <filter id="panelShadow" x="516" y="204" width="594" height="384" filterUnits="userSpaceOnUse" color-interpolation-filters="sRGB">
      <feDropShadow dx="0" dy="18" stdDeviation="18" flood-color="#000000" flood-opacity="0.32"/>
      <feDropShadow dx="0" dy="0" stdDeviation="8" flood-color="#A8B58A" flood-opacity="0.13"/>
    </filter>
  </defs>
</svg>
