<?xml version="1.0" encoding="UTF-8"?>
<svg xmlns="http://www.w3.org/2000/svg" width="3022" height="908" viewBox="0 0 3022 908" role="img">
  <title>Cocoon Logo Sage</title>
  
  <g transform="translate(315.446064 643.045459) scale(0.253752295 -0.253752295)">
    <path d="M776 -24C1101 -24 1353 177 1404 494H1179C1132 292 980 179 778 179C484 179 304 407 304 744C304 1083 484 1311 778 1311C981 1311 1134 1197 1178 994H1404C1352 1312 1101 1514 776 1514C364 1514 81 1203 81 744C81 288 365 -24 776 -24ZM2338 -24C2735 -24 3024 288 3024 744C3024 1202 2735 1514 2338 1514C1941 1514 1653 1202 1653 744C1653 289 1941 -24 2338 -24ZM2338 179C2081 179 1876 381 1876 744C1876 1109 2081 1311 2338 1311C2595 1311 2801 1109 2801 744C2801 381 2595 179 2338 179ZM3971 -24C4296 -24 4548 177 4599 494H4374C4327 292 4175 179 3973 179C3679 179 3499 407 3499 744C3499 1083 3679 1311 3973 1311C4176 1311 4329 1197 4373 994H4599C4547 1312 4296 1514 3971 1514C3559 1514 3276 1203 3276 744C3276 288 3560 -24 3971 -24ZM5533 -24C5930 -24 6219 288 6219 744C6219 1202 5930 1514 5533 1514C5136 1514 4848 1202 4848 744C4848 289 5136 -24 5533 -24ZM5533 179C5276 179 5071 381 5071 744C5071 1109 5276 1311 5533 1311C5790 1311 5996 1109 5996 744C5996 381 5790 179 5533 179ZM7156 -24C7553 -24 7842 288 7842 744C7842 1202 7553 1514 7156 1514C6759 1514 6471 1202 6471 744C6471 289 6759 -24 7156 -24ZM7156 179C6899 179 6694 381 6694 744C6694 1109 6899 1311 7156 1311C7413 1311 7619 1109 7619 744C7619 381 7413 179 7156 179ZM8149 0H8371V806C8371 872 8370 1001 8363 1176C8462 1006 8543 871 8585 805L9094 0H9342V1490H9119V603C9119 549 9121 422 9125 314C9065 420 8999 533 8964 589L8395 1490H8149Z" fill="#87977E"/>
  </g>
</svg>
