<?xml version="1.0" encoding="UTF-8"?>
<svg xmlns="http://www.w3.org/2000/svg" width="128" height="128" viewBox="0 0 128 128" role="img">
  <title>Cocoon Glyph Standard OnInk</title>
  <rect width="100%" height="100%" fill="#1C201B"/>
  <g transform="translate(18.136866 110.017555) scale(0.061768531 -0.061768531)"><path d="M776 -24C1101 -24 1353 177 1404 494H1179C1132 292 980 179 778 179C484 179 304 407 304 744C304 1083 484 1311 778 1311C981 1311 1134 1197 1178 994H1404C1352 1312 1101 1514 776 1514C364 1514 81 1203 81 744C81 288 365 -24 776 -24Z" fill="#F8F4EC"/></g>
  <circle cx="96" cy="42" r="5" fill="#F8F4EC" opacity="0.58"/>
  <circle cx="96" cy="64" r="5" fill="#F8F4EC" opacity="0.58"/>
  <circle cx="96" cy="86" r="5" fill="#F8F4EC" opacity="0.58"/>
</svg>